<svg xmlns="http://www.w3.org/2000/svg" viewBox="0 0 512 512" width="512" height="512" role="img" aria-label="R. Force Universe logo">
  <defs>
    <linearGradient id="bg" x1="0" y1="0" x2="1" y2="1">
      <stop offset="0%" stop-color="#0ea5e9"/>
      <stop offset="100%" stop-color="#0369a1"/>
    </linearGradient>
  </defs>
  <rect x="16" y="16" width="480" height="480" rx="96" fill="url(#bg)"/>
  <path d="M122 338V174h108c48 0 76 22 76 58 0 30-20 50-53 56l64 50h-49l-56-46h-42v46h-48zm48-84h56c22 0 34-10 34-25 0-16-12-25-34-25h-56v50z" fill="#fff"/>
  <circle cx="390" cy="146" r="30" fill="#e0f2fe"/>
  <path d="M392 118c8 15 12 34 3 51-18-6-30-20-36-38 11-6 21-9 33-13z" fill="#0284c7"/>
</svg>
